<?xml version="1.0" encoding="utf-8"?>
<!-- Generator: Adobe Illustrator 21.1.0, SVG Export Plug-In . SVG Version: 6.00 Build 0)  -->
<svg version="1.1" id="レイヤー_1" xmlns="http://www.w3.org/2000/svg" xmlns:xlink="http://www.w3.org/1999/xlink" x="0px"
	 y="0px" viewBox="0 0 1644.1 793.7" style="enable-background:new 0 0 1644.1 793.7;" xml:space="preserve">
<style type="text/css">
	.st0{fill:#D2761E;}
	.st1{fill:#009944;}
	.st2{fill:#F3E6CA;stroke:#D48325;stroke-miterlimit:10;}
	.st3{fill:#3F5228;}
	.st4{fill:#809F2B;}
	.st5{fill:#E60012;}
	.st6{fill:#881C21;}
	.st7{fill:#D51E19;}
	.st8{fill:#D65513;stroke:#881C21;stroke-miterlimit:10;}
	.st9{font-family:'STSongti-SC-Regular';}
	.st10{font-size:230.3024px;}
	.st11{fill:#CC5518;}
	.st12{font-family:'ToppanBunkyuMinchoPr6N-Regular-83pv-RKSJ-H';}
	.st13{font-size:72.0996px;}
</style>
<rect class="st0" width="1644.1" height="793.7"/>
<path class="st1" d="M774.5,620.4"/>
<rect x="23.7" y="26.6" class="st2" width="1596.6" height="740.5"/>
<g>
	<path class="st3" d="M497.9,551.2l-32.1,53.2l-36.4,48.7c-0.2,3,8.4-1.4,10.4-3.9l36.9-53.6l26.6-41.6"/>
	<g>
		<path class="st4" d="M505,534.5c26.7-41.7,53.5-39.2,80.2-93.3c26.7-54.2,5.8-68.6,22-114.1l8.9-18c-2.3,4.7-4.6,8.9-6.9,12.8
			c1.6-4.1,3.6-8.5,5.9-13.1l-8.9,18c-26.7,41.7-53.5,39.2-80.2,93.3c-26.7,54.2-5.8,68.6-22,114.1l-8.9,18
			c2.3-4.7,4.6-8.9,6.9-12.8c-1.6,4.1-3.6,8.5-5.9,13.1L505,534.5z"/>
		<path class="st4" d="M494.9,533c4-46.6,33.9-58.6,30.6-114.9s-33.9-56.7-43.1-100.7l-1.1-18.7c0.3,4.8,0.3,9.4,0.1,13.6
			c-0.7-4.1-1.1-8.5-1.4-13.3l1.1,18.7c-4,46.6-33.9,58.6-30.6,114.9c3.3,56.3,33.9,56.7,43.1,100.7l1.1,18.7
			c-0.3-4.8-0.3-9.4-0.1-13.6c0.7,4.1,1.1,8.5,1.4,13.3L494.9,533z"/>
		<path class="st4" d="M492.9,532.2c-21.9-38-4.8-59.2-37.7-101.8S398,399.5,367,368.8l-10.9-14.2c2.8,3.7,5.3,7.2,7.4,10.5
			c-2.7-2.9-5.5-6.2-8.3-9.9l10.9,14.2c21.9,38,4.8,59.2,37.7,101.8c32.9,42.7,57.2,30.8,88.1,61.6l10.9,14.2
			c-2.8-3.7-5.3-7.2-7.4-10.5c2.7,2.9,5.5,6.2,8.3,9.9L492.9,532.2z"/>
		<path class="st4" d="M494.3,533.8c-39.4-23.6-34.1-45.2-86.1-69.4s-68.8-8-113.1-23.4l-17.3-8c4.5,2.1,8.5,4.1,12.2,6.2
			c-4-1.5-8.2-3.3-12.7-5.4l17.3,8c39.4,23.6,34.1,45.2,86.1,69.4c52,24.2,68.8,8,113.1,23.4l17.3,8c-4.5-2.1-8.5-4.1-12.2-6.2
			c4,1.5,8.2,3.3,12.7,5.4L494.3,533.8z"/>
		<path class="st4" d="M539.8,520.4c-29.2,2.3-38.5-12.5-73.3-5.4c-34.8,7.1-33.2,23.5-60.1,32.6l-11.6,2.4c3-0.6,5.8-1.1,8.4-1.4
			c-2.5,0.7-5.2,1.4-8.2,2l11.6-2.4c29.2-2.3,38.5,12.5,73.3,5.4c34.8-7.1,33.2-23.5,60.1-32.6l11.6-2.4c-3,0.6-5.8,1.1-8.4,1.4
			c2.5-0.7,5.2-1.4,8.2-2L539.8,520.4z"/>
		<path class="st4" d="M511.5,502.8c4.1,24-13,32.2-3,60.6s29.4,26.5,41.5,48.3l3.3,9.4c-0.9-2.4-1.5-4.7-2-6.9c1,2,1.9,4.2,2.8,6.7
			l-3.3-9.4c-4.1-24,13-32.2,3-60.6c-10-28.5-29.4-26.5-41.5-48.3l-3.3-9.4c0.9,2.4,1.5,4.7,2,6.9c-1-2-1.9-4.2-2.8-6.7L511.5,502.8
			z"/>
		<path class="st4" d="M512.4,542.9c43.4,16.1,41.6,41.3,97.7,54.8c56.1,13.5,70.1-8.8,117-3.2l18.6,4.5c-4.8-1.2-9.2-2.4-13.2-3.7
			c4.2,0.7,8.8,1.6,13.6,2.7l-18.6-4.5c-43.4-16.1-41.6-41.3-97.7-54.8c-56.1-13.5-70.1,8.8-117,3.2l-18.6-4.5
			c4.8,1.2,9.2,2.4,13.2,3.7c-4.2-0.7-8.8-1.6-13.6-2.7L512.4,542.9z"/>
		<path class="st4" d="M515,541.1c47.5-3,55.2,22,113.9,11.2c58.7-10.9,64-38.2,111-52.7l19.5-3.6c-5,0.9-9.7,1.6-14.1,2
			c4.3-1.2,9-2.2,14-3.1l-19.5,3.6c-47.5,3-55.2-22-113.9-11.2c-58.7,10.9-64,38.2-111,52.7l-19.5,3.6c5-0.9,9.7-1.6,14.1-2
			c-4.3,1.2-9,2.2-14,3.1L515,541.1z"/>
		<path class="st4" d="M513,537c43.2-25.6,65.2-7.5,114.4-45.4s38.1-64.3,74.1-99.7l16.3-12.6c-4.2,3.3-8.3,6.1-12.1,8.6
			c3.4-3.1,7.2-6.3,11.4-9.5L700.8,391c-43.2,25.6-65.2,7.5-114.4,45.4c-49.2,37.9-38.1,64.3-74.1,99.7L496,548.7
			c4.2-3.3,8.3-6.1,12.1-8.6c-3.4,3.1-7.2,6.3-11.4,9.5L513,537z"/>
		<path class="st4" d="M442.6,494.3c8.6-17.4,48.9-19.5,90.1-4.9s67.7,40.7,59.1,58.1s-48.9,19.5-90.1,4.9S434.1,511.7,442.6,494.3z
			"/>
	</g>
</g>
<path class="st5" d="M494.7,431"/>
<g>
	<path class="st6" d="M387.3,487.5l19.1,84l10.2,82.2c2.7,3.5,7.2-8,6.8-12.2l-14.5-88.1l-13.3-66.8"/>
	<g>
		<path class="st7" d="M378.3,463.4c-13.3-67,16.5-84.5-9-165.5c-25.5-81-60.9-81.2-88.6-144.5l-8.5-26.9c2.2,7,4,13.4,5.4,19.5
			c-2.3-5.9-4.6-12.2-6.8-19.2l8.5,26.9c13.3,67-16.5,84.5,9,165.5c25.5,81,60.9,81.2,88.6,144.5l8.5,26.9c-2.2-7-4-13.4-5.4-19.5
			c2.3,5.9,4.6,12.2,6.8,19.2L378.3,463.4z"/>
		<path class="st7" d="M366.5,469.5c-41.3-55.2-22.5-91.4-80.7-152s-89.8-37.7-142.1-80l-19.3-20.1c5,5.2,9.4,10.2,13.4,15.1
			c-4.6-4.1-9.4-8.7-14.4-13.9l19.3,20.1c41.3,55.2,22.5,91.4,80.7,152c58.2,60.6,89.8,37.7,142.1,80l19.3,20.1
			c-5-5.2-9.4-10.2-13.4-15.1c4.6,4.1,9.4,8.7,14.4,13.9L366.5,469.5z"/>
		<path class="st7" d="M363.6,470.1c-59.3-25.9-62.5-62.6-137.6-85.4s-88.4,8.9-149.9-1.9l-24.9-7.6c6.5,2,12.4,4,17.8,6.2
			c-5.6-1.2-11.6-2.8-18.1-4.7l24.9,7.6c59.3,25.9,62.5,62.6,137.6,85.4c75.1,22.8,88.4-8.9,149.9,1.9l24.9,7.6
			c-6.5-2-12.4-4-17.8-6.2c5.6,1.2,11.6,2.8,18.1,4.7L363.6,470.1z"/>
		<path class="st7" d="M366.6,470.8c-63.3,3.5-78.7-24.7-155.4-12.3c-76.7,12.4-78.1,43.3-138.2,59.7l-25.5,4.1
			c6.6-1.1,12.7-1.8,18.5-2.3c-5.6,1.3-11.6,2.5-18.2,3.6l25.5-4.1c63.3-3.5,78.7,24.7,155.4,12.3c76.7-12.4,78.1-43.3,138.2-59.7
			l25.5-4.1c-6.6,1.1-12.7,1.8-18.5,2.3c5.6-1.3,11.6-2.5,18.2-3.6L366.6,470.8z"/>
		<path class="st7" d="M400.1,421.2c-27.6,24.8-51.5,15.2-80.2,49.7s-11.1,51.5-29.6,82.2l-9.5,11.4c2.5-3,4.9-5.6,7.3-8
			c-1.8,2.7-4,5.6-6.4,8.5l9.5-11.4c27.6-24.8,51.5-15.2,80.2-49.7c28.7-34.4,11.1-51.5,29.6-82.2l9.5-11.4c-2.5,3-4.9,5.6-7.3,8
			c1.8-2.7,4-5.6,6.4-8.5L400.1,421.2z"/>
		<path class="st7" d="M354,423.1c27.5,23.8,18,46,56,70.2s55.8,7.4,89.3,22.6l12.6,8c-3.3-2.1-6.2-4.1-8.8-6.2
			c3,1.5,6.1,3.3,9.4,5.4l-12.6-8c-27.5-23.8-18-46-56-70.2s-55.8-7.4-89.3-22.6l-12.6-8c3.3,2.1,6.2,4.1,8.8,6.2
			c-3-1.5-6.1-3.3-9.4-5.4L354,423.1z"/>
		<path class="st7" d="M394,467.2c59.9-15,82.7,14.6,153.1-12.9c70.4-27.5,63-63.2,116.4-92.5l23.4-9.1c-6,2.4-11.7,4.3-17.1,5.9
			c5-2.5,10.5-4.9,16.5-7.3l-23.4,9.1c-59.9,15-82.7-14.6-153.1,12.9c-70.4,27.5-63,63.2-116.4,92.5L370,475
			c6-2.4,11.7-4.3,17.1-5.9c-5,2.5-10.5,4.9-16.5,7.3L394,467.2z"/>
		<path class="st7" d="M394.9,463.4c45.6-39.5,77.8-17.3,127.2-74.1c49.4-56.8,28.1-91.4,62-143.4l16.4-18.9
			c-4.2,4.9-8.4,9.2-12.4,13c3.3-4.6,7-9.3,11.2-14.2L583,244.7c-45.6,39.5-77.8,17.3-127.2,74.1c-49.4,56.8-28.1,91.4-62,143.4
			L377.4,481c4.2-4.9,8.4-9.2,12.4-13c-3.3,4.6-7,9.3-11.2,14.2L394.9,463.4z"/>
		<path class="st7" d="M388.9,460.3c19.2-61.6,59.2-57.9,72.6-137.8s-23.7-101-21.4-168l4.4-26.5c-1.1,6.9-2.5,13.1-4,18.8
			c0.5-6.1,1.2-12.5,2.4-19.4l-4.4,26.5c-19.2,61.6-59.2,57.9-72.6,137.8c-13.4,79.9,23.7,101,21.4,168l-4.4,26.5
			c1.1-6.9,2.5-13.1,4-18.8c-0.5,6.1-1.2,12.5-2.4,19.4L388.9,460.3z"/>
		<path class="st7" d="M275.4,465.9c-8.2-26,30.9-59.1,87.3-73.9s108.7-5.9,116.9,20.1c8.2,26-30.9,59.1-87.3,73.9
			S283.6,491.8,275.4,465.9z"/>
	</g>
</g>
<text transform="matrix(1 0 0 1 840.1087 398.8502)" class="st8 st9 st10">秋華祭</text>
<text transform="matrix(1 0 0 1 993.9388 505.8018)" class="st11 st12 st13">-Syuukasai-</text>
</svg>
